HIERARCHY
ROOT pelvis
{
  OFFSET 0 100 0
  CHANNELS 6 Xposition Yposition Zposition Zrotation Xrotation Yrotation
  JOINT pelvis_right_femur
  {
    OFFSET -10.78128 -3.44521 -0.5502486
    CHANNELS 3 Zrotation Xrotation Yrotation
    JOINT right_femur_tibia
    {
      OFFSET -0.8047443 -44.0398 -0.1307829
      CHANNELS 3 Zrotation Xrotation Yrotation
      JOINT right_tibia_foot
      {
        OFFSET 3.006224 -47.83518 -5
        CHANNELS 3 Zrotation Xrotation Yrotation
        End Site
        {
          OFFSET 0 -5 15
        }
      }
    }
  }
  JOINT pelvis_left_femur
  {
    OFFSET 10.78128 -3.44521 -0.5502486
    CHANNELS 3 Zrotation Xrotation Yrotation
    JOINT left_femur_tibia
    {
      OFFSET 0.8047443 -44.0398 -0.1307829
      CHANNELS 3 Zrotation Xrotation Yrotation
      JOINT left_tibia_foot
      {
        OFFSET -4.370144 -48.10324 -4.275266
        CHANNELS 3 Zrotation Xrotation Yrotation
        End Site
        {
          OFFSET 0 -5 15
        }
      }
    }
  }
  JOINT pelvis_spine1
  {
    OFFSET 0 6.468898 -3.129235
    CHANNELS 3 Zrotation Xrotation Yrotation
    JOINT spine1
    {
      OFFSET 0 23.15396 4.99043
      CHANNELS 3 Zrotation Xrotation Yrotation
      JOINT spine2
      {
        OFFSET 0 20.79997 -5.064912
        CHANNELS 3 Zrotation Xrotation Yrotation
        JOINT neck
        {
          OFFSET 0 14.38658 9.616178
          CHANNELS 3 Zrotation Xrotation Yrotation
          End Site
          {
            OFFSET 0 20 0
          }
        }
      }
      JOINT right_manubrium
      {
        OFFSET -5.722621 16.35077 3.967754
        CHANNELS 3 Zrotation Xrotation Yrotation
        JOINT right_clavicle
        {
          OFFSET -13.16364 1.694482 -4.693211
          CHANNELS 3 Zrotation Xrotation Yrotation
          JOINT right_humerus
          {
            OFFSET -28.5034 -0.3100689 -2.792744
            CHANNELS 3 Zrotation Xrotation Yrotation
            JOINT right_radius
            {
              OFFSET -25.15693 0.02248979 -1.271978
              CHANNELS 3 Zrotation Xrotation Yrotation
              End Site
              {
                OFFSET -15 0 0
              }
            }
          }
        }
      }
      JOINT left_manubrium
      {
        OFFSET 5.722621 16.35077 3.967754
        CHANNELS 3 Zrotation Xrotation Yrotation
        JOINT left_clavicle
        {
          OFFSET 13.16364 1.694482 -4.693211
          CHANNELS 3 Zrotation Xrotation Yrotation
          JOINT left_humerus
          {
            OFFSET 29.39168 -1.063119 -2.237045
            CHANNELS 3 Zrotation Xrotation Yrotation
            JOINT left_radius
            {
              OFFSET 24.59957 -0.9528479 0.9047498
              CHANNELS 3 Zrotation Xrotation Yrotation
              End Site
              {
                OFFSET 15 -0 -0
              }
            }
          }
        }
      }
    }
  }
}
MOTION
Frames: 17
Frame Time: 0.0416666666667
-56.65194 91.28361 19.30981 4.509705 -9.538167 21.41414 6.002317 -5.112331 -8.058441 -0 21.91803 -0 -19.72483 12.62207 4.471141 1.874934 -11.25366 -4.171267 -0 41.6257 -0 -0.3415917 0.07623429 9.57496 1.629835 -4.929513 7.770082 -0.006973202 24.65789 -10.09204 -0.3158186 15.49422 4.376378 13.36761 -14.42555 -6.595419 8.821198 -29.06497 17.79942 81.08836 16.487 -17.57775 -0 0 34.60019 -33.13104 19.44021 11.56331 7.366382 -33.41366 -15.9219 -95.52219 -0.4752522 30.71616 0 0 -6.705803 11.77092 14.87306 -4.353866
-54.103 91.30811 23.41822 4.389223 -9.593798 20.68916 6.002317 -5.112331 -8.058441 -0 21.91803 -0 -19.72483 12.62207 4.471141 1.874934 -11.25366 -4.171267 -0 41.6257 -0 -0.3415917 0.0762343 9.57496 1.629835 -4.929513 7.770082 -0.006973198 24.65789 -10.09204 -0.3158186 15.49422 4.376378 13.36761 -14.42555 -6.595419 8.821198 -29.06497 17.79942 81.08836 16.487 -17.57775 -0 0 34.60019 -33.13104 19.44021 11.56331 7.366382 -33.41366 -15.9219 -95.52219 -0.4752522 30.71616 0 0 -6.705803 11.77092 14.87306 -4.353866
-51.60567 91.33262 27.55821 4.268018 -9.64792 19.96394 6.002317 -5.112331 -8.058441 -0 21.91803 -0 -19.72483 12.62207 4.471141 1.874934 -11.25366 -4.171267 -0 41.6257 -0 -0.3415917 0.0762343 9.57496 1.629835 -4.929513 7.770082 -0.006973195 24.65789 -10.09204 -0.3158186 15.49422 4.376378 13.36761 -14.42555 -6.595419 8.821198 -29.06497 17.79942 81.08836 16.487 -17.57775 -0 0 34.60019 -33.13104 19.44021 11.56331 7.366382 -33.41366 -15.9219 -95.52219 -0.4752522 30.71616 0 0 -6.705803 11.77092 14.87306 -4.353866
-49.16034 91.35712 31.72914 4.146109 -9.700525 19.2385 6.002317 -5.112331 -8.058441 -0 21.91803 -0 -19.72483 12.62207 4.471141 1.874934 -11.25366 -4.171267 -0 41.6257 -0 -0.3415917 0.07623431 9.57496 1.629835 -4.929513 7.770082 -0.006973192 24.65789 -10.09204 -0.3158186 15.49422 4.376378 13.36761 -14.42555 -6.595419 8.821198 -29.06497 17.79942 81.08836 16.487 -17.57775 -0 0 34.60019 -33.13104 19.44021 11.56331 7.366382 -33.41366 -15.9219 -95.52219 -0.4752522 30.71616 0 0 -6.705803 11.77092 14.87306 -4.353866
-46.7674 91.38162 35.93033 4.023514 -9.751604 18.51283 6.002317 -5.112331 -8.058441 -0 21.91803 -0 -19.72483 12.62207 4.471141 1.874934 -11.25366 -4.171267 -0 41.6257 -0 -0.3415917 0.07623432 9.57496 1.629835 -4.929513 7.770082 -0.006973191 24.65789 -10.09204 -0.3158186 15.49422 4.376378 13.36761 -14.42555 -6.595419 8.821198 -29.06497 17.79942 81.08836 16.487 -17.57775 -0 0 34.60019 -33.13104 19.44021 11.56331 7.366382 -33.41366 -15.9219 -95.52219 -0.4752522 30.71616 0 0 -6.705803 11.77092 14.87306 -4.353866
-44.42723 91.40613 40.16115 3.900254 -9.801148 17.78694 6.002317 -5.112331 -8.058441 -0 21.91803 -0 -19.72483 12.62207 4.471141 1.874934 -11.25366 -4.171267 -0 41.6257 -0 -0.3415917 0.07623433 9.57496 1.629835 -4.929513 7.770082 -0.006973189 24.65789 -10.09204 -0.3158186 15.49422 4.376378 13.36761 -14.42555 -6.595419 8.821198 -29.06497 17.79942 81.08836 16.487 -17.57775 -0 0 34.60019 -33.13104 19.44021 11.56331 7.366382 -33.41366 -15.9219 -95.52219 -0.4752522 30.71616 0 0 -6.705803 11.77092 14.87306 -4.353866
-42.14019 91.43063 44.42092 3.776349 -9.84915 17.06084 6.002317 -5.112331 -8.058441 -0 21.91803 -0 -19.72483 12.62207 4.471141 1.874934 -11.25366 -4.171267 -0 41.6257 -0 -0.3415917 0.07623433 9.57496 1.629835 -4.929513 7.770082 -0.006973189 24.65789 -10.09204 -0.3158186 15.49422 4.376378 13.36761 -14.42555 -6.595419 8.821198 -29.06497 17.79942 81.08836 16.487 -17.57775 -0 0 34.60019 -33.13104 19.44021 11.56331 7.366382 -33.41366 -15.9219 -95.52219 -0.4752522 30.71616 0 0 -6.705803 11.77092 14.87306 -4.353866
-39.90664 91.45514 48.70898 3.651819 -9.8956 16.33453 6.002317 -5.112331 -8.05844 -0 21.91803 -0 -19.72483 12.62207 4.471141 1.874934 -11.25366 -4.171267 -0 41.6257 -0 -0.3415917 0.07623434 9.57496 1.629835 -4.929513 7.770082 -0.006973189 24.65789 -10.09204 -0.3158186 15.49422 4.376378 13.36761 -14.42555 -6.595419 8.821198 -29.06497 17.79942 81.08836 16.487 -17.57775 -0 0 34.60019 -33.13104 19.44021 11.56331 7.366382 -33.41366 -15.9219 -95.52219 -0.4752522 30.71616 0 0 -6.705803 11.77092 14.87306 -4.353866
-37.72693 91.47964 53.02466 3.526683 -9.940491 15.60802 6.002317 -5.112331 -8.05844 -0 21.91803 -0 -19.72483 12.62207 4.471141 1.874934 -11.25366 -4.171267 -0 41.6257 -0 -0.3415917 0.07623435 9.57496 1.629835 -4.929513 7.770082 -0.00697319 24.65789 -10.09204 -0.3158186 15.49422 4.376378 13.36761 -14.42555 -6.595419 8.821198 -29.06497 17.79942 81.08836 16.487 -17.57775 -0 0 34.60019 -33.13104 19.44021 11.56331 7.366382 -33.41366 -15.9219 -95.52219 -0.4752522 30.71616 0 0 -6.705803 11.77092 14.87306 -4.353866
-35.60139 91.50415 57.36727 3.400963 -9.983815 14.88131 6.002317 -5.112331 -8.05844 -0 21.91803 -0 -19.72483 12.62207 4.471141 1.874934 -11.25366 -4.171267 -0 41.6257 -0 -0.3415917 0.07623435 9.57496 1.629835 -4.929513 7.770082 -0.006973191 24.65789 -10.09204 -0.3158186 15.49422 4.376378 13.36761 -14.42555 -6.595419 8.821198 -29.06497 17.79942 81.08836 16.487 -17.57775 -0 0 34.60019 -33.13104 19.44021 11.56331 7.366382 -33.41366 -15.9219 -95.52219 -0.4752522 30.71616 0 0 -6.705803 11.77092 14.87306 -4.353866
-33.53038 91.52865 61.73615 3.274678 -10.02556 14.15441 6.002317 -5.112331 -8.05844 -0 21.91803 -0 -19.72483 12.62207 4.471141 1.874934 -11.25366 -4.171267 -0 41.6257 -0 -0.3415917 0.07623435 9.57496 1.629835 -4.929513 7.770082 -0.006973192 24.65789 -10.09204 -0.3158186 15.49422 4.376378 13.36761 -14.42555 -6.595419 8.821198 -29.06497 17.79942 81.08836 16.487 -17.57775 -0 0 34.60019 -33.13104 19.44021 11.56331 7.366382 -33.41366 -15.9219 -95.52219 -0.4752522 30.71616 0 0 -6.705803 11.77092 14.87306 -4.353866
-31.51419 91.55316 66.1306 3.147849 -10.06573 13.42733 6.002317 -5.112331 -8.05844 -0 21.91803 -0 -19.72483 12.62207 4.471141 1.874934 -11.25366 -4.171267 -0 41.6257 -0 -0.3415917 0.07623436 9.57496 1.629835 -4.929513 7.770082 -0.006973194 24.65789 -10.09204 -0.3158186 15.49422 4.376378 13.36761 -14.42555 -6.595419 8.821198 -29.06497 17.79942 81.08836 16.487 -17.57775 -0 0 34.60019 -33.13104 19.44021 11.56331 7.366382 -33.41366 -15.9219 -95.52219 -0.4752522 30.71616 0 0 -6.705803 11.77092 14.87306 -4.353866
-29.55316 91.57766 70.54994 3.020498 -10.10431 12.70007 6.002317 -5.112331 -8.05844 -0 21.91803 -0 -19.72483 12.62207 4.471141 1.874934 -11.25366 -4.171267 -0 41.6257 -0 -0.3415917 0.07623436 9.57496 1.629835 -4.929513 7.770082 -0.006973196 24.65789 -10.09204 -0.3158186 15.49422 4.376378 13.36761 -14.42555 -6.595419 8.821198 -29.06497 17.79942 81.08836 16.487 -17.57775 -0 0 34.60019 -33.13104 19.44021 11.56331 7.366382 -33.41366 -15.9219 -95.52219 -0.4752522 30.71616 0 0 -6.705803 11.77092 14.87306 -4.353866
-27.6476 91.60216 74.99348 2.892644 -10.1413 11.97264 6.002317 -5.112331 -8.05844 -0 21.91803 -0 -19.72483 12.62207 4.471141 1.874934 -11.25366 -4.171267 -0 41.6257 -0 -0.3415917 0.07623436 9.57496 1.629835 -4.929513 7.770082 -0.006973199 24.65789 -10.09204 -0.3158186 15.49422 4.376378 13.36761 -14.42555 -6.595419 8.821198 -29.06497 17.79942 81.08836 16.487 -17.57775 -0 0 34.60019 -33.13104 19.44021 11.56331 7.366382 -33.41366 -15.9219 -95.52219 -0.4752522 30.71616 0 0 -6.705803 11.77092 14.87306 -4.353866
-25.79779 91.62667 79.46052 2.764309 -10.17668 11.24505 6.002317 -5.112331 -8.05844 -0 21.91803 -0 -19.72483 12.62207 4.471141 1.874934 -11.25366 -4.171267 -0 41.6257 -0 -0.3415917 0.07623436 9.57496 1.629835 -4.929513 7.770082 -0.006973201 24.65789 -10.09204 -0.3158186 15.49422 4.376378 13.36761 -14.42555 -6.595419 8.821198 -29.06497 17.79942 81.08836 16.487 -17.57775 -0 0 34.60019 -33.13104 19.44021 11.56331 7.366382 -33.41366 -15.9219 -95.52219 -0.4752522 30.71616 0 0 -6.705803 11.77092 14.87306 -4.353866
-24.00403 91.65117 83.95035 2.635514 -10.21046 10.51729 6.002317 -5.112331 -8.05844 -0 21.91803 -0 -19.72483 12.62207 4.471141 1.874934 -11.25366 -4.171267 -0 41.6257 -0 -0.3415917 0.07623436 9.57496 1.629835 -4.929513 7.770082 -0.006973204 24.65789 -10.09204 -0.3158186 15.49422 4.376378 13.36761 -14.42555 -6.595419 8.821198 -29.06497 17.79942 81.08836 16.487 -17.57775 -0 0 34.60019 -33.13104 19.44021 11.56331 7.366382 -33.41366 -15.9219 -95.52219 -0.4752522 30.71616 0 0 -6.705803 11.77092 14.87306 -4.353866
-22.2666 91.67568 88.46229 2.50628 -10.24263 9.789392 6.002317 -5.11233 -8.05844 -0 21.91803 -0 -19.72483 12.62207 4.471141 1.874934 -11.25366 -4.171267 -0 41.6257 -0 -0.3415917 0.07623436 9.57496 1.629835 -4.929513 7.770082 -0.006973206 24.65789 -10.09204 -0.3158186 15.49422 4.376378 13.36761 -14.42555 -6.595419 8.821198 -29.06497 17.79942 81.08836 16.487 -17.57775 -0 0 34.60019 -33.13104 19.44021 11.56331 7.366382 -33.41366 -15.9219 -95.52219 -0.4752522 30.71616 0 0 -6.705803 11.77092 14.87306 -4.353866
